<svg width="264" height="264" viewBox="0 0 264 264" fill="none" xmlns="http://www.w3.org/2000/svg">
<path d="M243.636 159.177C240.155 163.638 234.904 169.418 226.55 176.892C216.057 186.28 202.205 193.23 188.569 199.354C181.842 202.376 175.092 203.956 165.036 205.34C141.805 208.536 123.553 206.32 113.725 200.455C101.346 193.068 93.2368 180.894 86.9933 165.482C82.7885 155.102 80.0558 137.872 79.1469 123.568C78.238 109.263 80.1498 97.9827 83.0684 88.4631C85.9869 78.9436 89.8542 71.5266 96.2573 63.2524C102.66 54.9781 111.482 46.0713 120.768 38.7655C130.054 31.4598 139.536 26.0249 148.456 22.2637C165.066 15.2604 178.486 15.8496 188.38 20.2C200.283 25.434 209.49 40.1379 218.897 55.5169C229.439 72.7548 232.284 88.9804 232.237 96.933C232.217 100.136 231.251 101.595 229.293 103.289C224.511 107.426 216.734 109.519 206.385 110.763C192.225 112.466 179.969 111.316 170.568 109.243C157.77 106.42 148.567 100.176 143.4 93.9014C135.706 84.558 132.033 69.5162 129.092 55.021C126.028 39.9113 128.454 25.4268 131.347 14.611C132.7 9.55667 136.206 6.42686 138.699 4.45271C141.193 2.47857 143.178 2.02152 145.191 2.00016C149.2 1.95762 159.188 10.2507 177.981 32.3508C189.699 46.1312 202.263 68.8166 211.74 85.5488C221.217 102.281 226.309 113.317 231.456 127.644C236.604 141.971 241.653 159.254 244.386 172.576C247.118 185.898 247.383 194.736 243.664 204.187C235.318 225.399 221.245 234.331 212.342 235.681C206.52 236.563 197.921 236.498 188.112 234.777C178.304 233.056 167.514 229.338 155.3 224.145C143.087 218.952 129.777 212.398 112.684 201.607C95.5907 190.816 75.1178 175.986 61.4 165.007C47.6822 154.029 41.3397 147.349 36.2806 140.367C26.6883 127.127 22.7617 111.728 21.5525 97.2268C20.3699 83.0436 27.5121 68.4261 35.0429 54.8938C41.6322 43.0533 56.8291 33.9425 75.6539 23.3288C84.8715 18.1317 93.8902 14.4711 103.989 10.9257C114.088 7.38031 125.116 4.35579 137.153 3.35417C161.834 1.30032 179.898 8.58127 188.539 17.0463C196.346 24.6928 197.877 37.1982 198.094 49.9593C198.357 65.4341 192.223 77.6917 175.41 96.0229C161.44 111.254 133.734 135.13 114.341 151.352C94.948 167.574 84.019 174.551 77.1226 178.287C70.2261 182.023 67.6933 182.305 65.9054 181.67C62.6977 180.531 61.0454 173.414 59.7418 158.625C58.8352 148.34 60.3038 132.209 62.1554 119.647C64.0071 107.086 66.9318 98.5318 71.3154 89.8779C75.699 81.2239 81.4528 72.7293 89.1425 64.6921C96.8322 56.6549 106.283 49.3325 117.62 42.948C128.956 36.5635 141.891 31.3387 152.014 28.1107C168.823 22.7505 181.453 22.7366 190.702 23.3337C197.356 23.7632 204.125 29.5014 212.875 37.6672C222.952 47.071 231.55 65.5136 240.189 84.0582C245.832 96.1735 246.008 114.548 243.676 141.158C242.466 154.968 237.52 168.821 233.543 179.282C226.867 196.844 217.459 207.136 206.486 214.554C192.795 223.809 179.345 222.099 170.548 220.376C155.947 217.516 141.244 207.012 124.623 193.825C100.309 174.535 85.9563 159.352 82.561 157.602C80.8709 156.731 79.129 156.212 77.725 156.077C76.321 155.942 75.2773 156.288 74.8246 158.086C73.6033 162.935 75.9953 170.002 78.6493 176.301C84.3721 189.882 108.903 197.593 125.73 202.903C132.779 205.128 137.043 205.34 151.205 186.728C165.368 168.116 189.361 130.402 202.484 107.156C215.607 83.9091 217.132 76.2724 217.424 73.0592C217.715 69.846 216.726 71.2877 210.191 82.8119C203.656 94.3361 191.604 115.899 177.534 136.889C163.463 157.879 147.738 177.643 136.738 186.519C125.737 195.395 119.937 192.784 114.983 189.904C110.029 187.025 106.097 183.955 96.8074 171.598C87.5179 159.241 72.9899 137.689 65.0648 123.89C54.6584 105.771 55.3485 96.2548 56.2412 87.6009C57.7421 73.0512 61.6509 62.1843 63.5911 58.0709C64.504 56.1354 65.8163 54.8765 67.3815 54.217C70.6842 52.8254 78.8437 57.872 90.5618 66.9141C102.334 75.9979 110.357 87.5685 119.516 101.815C125.507 111.136 133.137 125.587 138.711 137.21C148.157 156.909 151.927 173.878 154.256 188.301C156.257 200.698 153.627 210.054 149.866 217.604C144.881 227.609 135.566 238.572 125.44 249.207C117.293 257.763 111.549 261.301 108.3 261.853C99.565 263.337 90.4356 253.431 81.4338 240.174C74.5552 230.044 76.0068 218.634 79.2104 209.156C86.2557 188.313 98.5913 174.051 109.043 165.237C116.165 159.231 127.625 151.141 149.024 137.651C170.423 124.161 201.579 105.78 220.752 92.8806C247.243 75.0564 253.697 64.0525 255.168 60.4043C255.792 58.8572 255.166 57.5195 253.977 56.3718C251.151 53.6429 247.581 52.9816 226.37 54.5675C206.315 56.067 167.458 60.0038 146.64 62.3272C125.822 64.6506 124.236 65.5037 122.59 68.1098C118.542 74.5162 117.364 83.3366 117.84 92.4504C118.476 104.642 124.007 116.359 138.629 139.071C150.328 157.241 173.421 186.524 185.372 202.853C197.324 219.182 198.126 221.062 197.714 223.141C195.736 233.12 181.511 237.085 162.828 242.683C151.273 246.145 134.781 247.203 121.495 247.774C108.209 248.345 98.4432 247.46 84.8328 244.748C71.2224 242.035 54.0634 237.523 43.2734 234.211C17.25 226.223 5.95156 208.626 3.60801 204.432C2.23155 201.968 0.800892 198.597 3.63034 191.65C6.45978 184.704 13.676 174.225 26.6149 161.923C39.5538 149.622 57.9968 135.814 94.6453 115.589C131.294 95.3647 185.589 69.1414 215.955 54.0585C246.321 38.9755 251.112 35.8275 254.001 35.3164C257.974 34.6135 260.001 57.9606 261.75 91.8841C262.537 107.141 261.347 118.506 259.854 129.239C256.978 149.922 250.205 168.225 242.662 183.635C231.726 205.977 218.092 209.839 209.089 212.513C205.129 213.689 198.741 212.273 186.988 209.526C179.317 207.733 168.555 203.3 149.495 192.174C130.434 181.047 103.497 162.894 87.8927 150.207C72.2886 137.52 68.8344 130.851 62.2197 111.968C55.6051 93.0857 45.9348 62.1926 41.1308 47.0854C36.3268 31.9782 36.6822 33.5931 38.5264 39.6554C40.3706 45.7177 43.6929 56.1784 48.0052 66.4224C52.3176 76.6664 57.5194 86.3766 67.7784 103.559C78.0375 120.741 93.1961 145.101 101.676 159.048C111.741 175.603 112.879 180.693 112.573 185.395C111.625 199.953 103.003 215.044 92.8073 223.766C81.824 233.162 62.3126 220.078 42.0424 216.95C37.3301 216.223 34.486 216.496 33.2682 213.06C29.8698 203.469 36.1749 186.482 42.6371 169.332C48.2698 154.383 55.8622 143.705 67.7665 130.076C76.081 120.557 90.4635 107.481 115.881 86.614C141.299 65.7469 177.688 37.9264 197.235 22.6773C216.782 7.42823 218.385 5.59363 220.036 3.70343" stroke="white" stroke-width="4" stroke-linecap="round"/>
</svg>
